<?xml version="1.0" standalone="no"?>
<!DOCTYPE svg PUBLIC "-//W3C//DTD SVG 20010904//EN"
 "http://www.w3.org/TR/2001/REC-SVG-20010904/DTD/svg10.dtd">
<svg version="1.0" xmlns="http://www.w3.org/2000/svg"
 width="627.000000pt" height="323.000000pt" viewBox="0 0 627.000000 323.000000"
 preserveAspectRatio="xMidYMid meet">

<g transform="translate(0.000000,323.000000) scale(0.100000,-0.100000)"
fill="#000000" stroke="none">
<path d="M860 1250 l0 -440 440 0 440 0 0 440 0 440 -440 0 -440 0 0 -440z
m864 408 c-1 -10 -2 -200 -3 -423 l-1 -405 -420 0 -420 0 -2 415 c-2 228 -1
420 0 425 3 7 144 10 425 8 395 -3 422 -4 421 -20z"/>
<path d="M1312 1448 c-7 -7 -12 -17 -12 -22 0 -6 -18 -36 -41 -68 -22 -32 -38
-58 -35 -58 3 0 16 16 30 36 l24 36 -1 -78 c-1 -61 4 -90 20 -126 20 -43 57
-77 71 -64 3 3 0 6 -6 6 -6 0 -19 16 -28 36 -31 65 -17 229 23 276 13 15 12
18 -6 27 -25 14 -24 14 -39 -1z"/>
<path d="M1498 1433 c-17 -21 -110 -176 -127 -213 -13 -29 -19 -38 86 121 39
60 68 109 64 109 -4 0 -15 -8 -23 -17z"/>
<path d="M1180 1240 c-6 -11 -8 -20 -6 -20 3 0 10 9 16 20 6 11 8 20 6 20 -3
0 -10 -9 -16 -20z"/>
<path d="M1120 1140 c-6 -11 -8 -20 -6 -20 3 0 10 9 16 20 6 11 8 20 6 20 -3
0 -10 -9 -16 -20z"/>
<path d="M3293 1553 l-23 -4 0 -294 0 -293 23 -6 c29 -8 111 -8 131 0 13 5 16
25 16 110 0 60 4 104 10 104 5 0 31 -42 58 -92 61 -114 73 -128 115 -128 26 0
106 38 135 65 2 2 -33 53 -78 115 -44 61 -83 117 -86 125 -3 7 28 74 69 149
58 104 71 136 60 140 -8 3 -50 6 -92 6 l-78 0 -54 -112 -54 -113 -3 111 c-2
106 -4 112 -25 118 -24 6 -89 6 -124 -1z"/>
<path d="M3933 1552 l-43 -3 0 -284 c0 -246 2 -286 16 -300 13 -13 39 -15 157
-13 l141 3 8 35 c4 19 5 54 2 78 l-6 42 -74 0 -74 0 0 219 0 219 -42 3 c-24 2
-62 3 -85 1z"/>
<path d="M2167 1543 c-4 -3 -7 -136 -7 -294 l0 -287 23 -6 c31 -8 110 -7 124
2 9 5 13 50 15 142 l3 134 73 -136 73 -137 44 -7 c25 -3 61 -3 80 0 l35 7 0
294 0 295 -75 0 -74 0 -3 -142 -3 -143 -72 136 c-40 75 -80 140 -89 143 -21 8
-139 8 -147 -1z"/>
<path d="M2794 1536 c-3 -7 -4 -38 -2 -67 l3 -54 38 -3 37 -3 0 -155 c0 -85
-3 -155 -7 -155 -5 -1 -18 -3 -29 -4 -37 -4 -44 -15 -44 -65 0 -83 -7 -80 161
-80 167 0 169 1 169 79 0 46 -20 70 -55 67 l-25 -3 0 158 0 158 32 3 c26 2 33
9 40 33 5 17 6 47 2 68 l-6 37 -154 0 c-122 0 -156 -3 -160 -14z"/>
<path d="M4408 1257 c-42 -160 -74 -294 -72 -296 9 -10 102 -12 125 -3 21 9
29 22 41 69 l14 58 71 3 72 3 10 -38 c5 -21 13 -50 16 -65 4 -15 16 -29 28
-32 31 -8 130 -7 143 2 7 5 -14 102 -64 300 l-75 292 -116 0 -116 0 -77 -293z
m205 38 c24 -107 24 -105 -28 -105 -25 0 -45 2 -45 5 0 21 44 175 50 175 4 0
14 -34 23 -75z"/>
<path d="M5027 1543 c-4 -3 -7 -133 -7 -288 0 -239 2 -284 15 -295 23 -19 238
-8 290 14 84 36 126 99 145 221 12 76 1 185 -25 234 -24 47 -77 91 -129 106
-51 15 -276 22 -289 8z m227 -164 c34 -16 50 -67 43 -145 -5 -70 -25 -109 -62
-126 -50 -23 -55 -11 -55 142 l0 140 25 0 c13 0 35 -5 49 -11z"/>
</g>
</svg>
