<svg width="22" height="22" viewBox="0 0 22 22" fill="none" xmlns="http://www.w3.org/2000/svg">
<path d="M20.798 12.084C20.97 12.716 21.057 13.032 20.959 13.323C20.862 13.613 20.603 13.815 20.085 14.217L12.247 20.302C11.647 20.767 11.348 21 11 21C10.652 21 10.352 20.767 9.753 20.302L1.915 14.217C1.397 13.815 1.138 13.614 1.041 13.323C0.942997 13.032 1.03 12.716 1.202 12.083L4.231 1L7.088 7.654C7.344 8.25 7.472 8.548 7.726 8.716C7.98 8.883 8.305 8.883 8.954 8.883H13.046C13.695 8.883 14.02 8.883 14.274 8.716C14.528 8.548 14.656 8.25 14.912 7.654L17.77 1L20.798 12.084Z" stroke="black" stroke-width="1.5" stroke-linecap="round" stroke-linejoin="round"/>
</svg>
