<svg width="22" height="20" viewBox="0 0 22 20" fill="none" xmlns="http://www.w3.org/2000/svg">
<path d="M10.985 13.408L14.227 17.094C15.427 18.459 16.028 19.142 16.657 18.975C17.285 18.809 17.501 17.911 17.932 16.114L20.322 6.14604C20.987 3.37804 21.319 1.99504 20.581 1.31204C19.843 0.629039 18.564 1.13704 16.006 2.15204L4.14 6.86504C2.094 7.67804 1.071 8.08404 1.006 8.78204C0.998346 8.85317 0.998346 8.92491 1.006 8.99604C1.069 9.69504 2.09 10.104 4.134 10.923C5.059 11.294 5.522 11.48 5.854 11.835C5.89133 11.875 5.92733 11.9164 5.962 11.959C6.268 12.339 6.398 12.839 6.659 13.835L7.148 15.702C7.401 16.672 7.528 17.158 7.861 17.224C8.194 17.29 8.483 16.888 9.062 16.083L10.985 13.408ZM10.985 13.408L10.668 13.078C10.306 12.7 10.125 12.512 10.125 12.278C10.125 12.044 10.305 11.855 10.668 11.478L14.241 7.75404" stroke="black" stroke-width="1.5" stroke-linecap="round" stroke-linejoin="round"/>
</svg>
